# xmcd
#
# Track frame offsets: 
#        150
#        17085
#        37420
#        60600
#        87557
#        106152
#        125302
#        144452
#        161002
#
# Disc length: 2429 seconds
#
# Revision: 0
# Processed by: cddbd v1.5.2PL0 Copyright (c) Steve Scherf et al.
# Submitted via: ExactAudioCopy v0.99pb3
#
DISCID=79097b09
DTITLE=Linda Tillery - Secrets
DYEAR=2001
DGENRE=Blues
TTITLE0=I Suppose
TTITLE1=Secrets
TTITLE2=Basin St.
TTITLE3=Pretty Lies
TTITLE4=Count On Me
TTITLE5=The Chosen Ones
TTITLE6=Fever
TTITLE7=I'm So Thankful
TTITLE8=Special Kind Of Love
EXTD=
EXTT0=
EXTT1=
EXTT2=
EXTT3=
EXTT4=
EXTT5=
EXTT6=
EXTT7=
EXTT8=
PLAYORDER=
